# xmcd
#
# Track frame offsets: 
#        150
#        13342
#        29812
#        39892
#        57227
#        74130
#        85757
#        97297
#        110430
#        126472
#
# Disc length: 1898 seconds
#
# Revision: 2
# Processed by: cddbd v1.5.1PL0 Copyright (c) Steve Scherf et al.
# Submitted via: ExactAudioCopy v0.95a5
#
DISCID=9507680a
DTITLE=Hank Williams Jr. - Greatest Hits Volume 2
DYEAR=1994
DGENRE=Outlaw Country
TTITLE0=All My Rowdy Friends Are Coming Over Tonight
TTITLE1=Man of Steel
TTITLE2=Honky Tonkin'
TTITLE3=The Conversation
TTITLE4=Queen of My Heart
TTITLE5=Two Old Cats Like Us
TTITLE6=Gonna Go Huntin' Tonight
TTITLE7=Attitude Adjustment
TTITLE8=Major Moves
TTITLE9=Leave Them Boys Alone
EXTD=
EXTT0=
EXTT1=
EXTT2=
EXTT3=
EXTT4=
EXTT5=
EXTT6=
EXTT7=
EXTT8=
EXTT9=
PLAYORDER=
